<svg width="104" height="32" viewBox="0 0 104 32" fill="none" xmlns="http://www.w3.org/2000/svg">
<path fill-rule="evenodd" clip-rule="evenodd" d="M78.0563 7.28786C77.7143 7.03453 77.3245 6.90648 76.8856 6.90648C76.0089 6.90648 75.5707 7.44977 75.5707 8.53587V10.1959H78.9861V13.4237H75.5707V25.536H72.1398V13.4237H69.8199V10.1959H72.1398V8.10552C72.1398 6.69136 72.5259 5.57974 73.2977 4.76994C74.0697 3.96063 75.0274 3.55566 76.171 3.55566C77.1046 3.55566 77.853 3.69412 78.4152 3.97066C78.8652 4.19243 79.2317 4.43076 79.5171 4.68518L78.0563 7.28786ZM47.8396 25.535H51.7185V4.20114H47.8396V25.535ZM40.4703 21.4441C39.6729 22.3335 38.6766 22.7783 37.4808 22.7783C36.2648 22.7783 35.2685 22.3387 34.4912 21.4594C33.7139 20.5806 33.3253 19.456 33.3253 18.0859C33.3253 16.7366 33.7139 15.6224 34.4912 14.7431C35.2685 13.8642 36.2648 13.4244 37.4808 13.4244C38.6766 13.4244 39.6729 13.8642 40.4703 14.7431C41.2672 15.6224 41.666 16.7366 41.666 18.0859C41.666 19.4354 41.2672 20.5547 40.4703 21.4441ZM41.4577 11.093C40.2815 10.3777 38.9562 10.0198 37.4817 10.0198C36.0266 10.0198 34.7061 10.3777 33.5206 11.093C32.3345 11.8089 31.4077 12.7799 30.7403 14.0066C30.0723 15.2333 29.7388 16.5931 29.7388 18.0853C29.7388 19.578 30.0723 20.9428 30.7403 22.1796C31.4077 23.4168 32.3294 24.393 33.5056 25.1084C34.6813 25.8239 36.0065 26.1818 37.4817 26.1818C38.9562 26.1818 40.2815 25.8239 41.4577 25.1084C42.6334 24.393 43.5601 23.4168 44.2379 22.1796C44.9152 20.9428 45.2543 19.578 45.2543 18.0853C45.2543 16.5931 44.9152 15.2333 44.2379 14.0066C43.5601 12.7799 42.6334 11.8089 41.4577 11.093ZM85.3357 25.535H81.4568V4.20114H85.3357V25.535ZM99.2024 10.0198V17.8808C99.2024 19.1347 98.8883 20.1004 98.2605 20.7788C97.6324 21.4568 96.8102 21.796 95.7935 21.796C94.8366 21.796 94.0987 21.5185 93.5807 20.9637C93.062 20.4088 92.8031 19.4738 92.8031 18.1582V10.0198H89.2147V18.7748C89.2147 20.9535 89.6977 22.5774 90.6649 23.6457C91.6317 24.7146 92.9624 25.2487 94.6571 25.2487C95.7135 25.2487 96.5906 25.069 97.2886 24.7092C97.9862 24.3499 98.614 23.8205 99.1725 23.1216L99.2024 23.2141V24.8479C99.2024 26.122 98.8883 27.1032 98.2605 27.792C97.6324 28.4803 96.77 28.8247 95.6737 28.8247C94.171 28.8247 93.1875 28.2526 92.7199 27.1138L89.7546 28.6852C90.1545 29.4528 90.6868 30.1111 91.3528 30.659C92.4391 31.553 93.8795 32.0001 95.6737 32.0001C97.9062 32.0001 99.6509 31.3474 100.907 30.0424C102.163 28.737 102.791 26.9953 102.791 24.8171V10.0198H99.2024ZM63.5744 20.3843C63.5744 21.2637 63.2795 21.9537 62.6901 22.4545C62.1002 22.9557 61.3683 23.2059 60.4944 23.2059C59.6607 23.2059 59.005 23.0271 58.5276 22.6691C58.0496 22.3118 57.8111 21.8364 57.8111 21.2431C57.8111 20.6096 58.0293 20.1238 58.4666 19.7864C58.9036 19.449 59.5998 19.2089 60.5556 19.0656L63.5744 18.6057V20.3843ZM65.4346 11.4458C64.2349 10.495 62.7206 10.0198 60.8909 10.0198C59.1018 10.0198 57.6993 10.4031 56.6827 11.1698C55.6743 11.93 54.9569 13.0784 54.5287 14.6127L57.7937 15.2085C57.9356 14.5095 58.2198 13.9696 58.6496 13.5924C59.1271 13.1737 59.8337 12.964 60.7691 12.964C62.6393 12.964 63.5745 13.8944 63.5745 15.7546V15.9387L60.3116 16.3986C58.0749 16.7053 56.515 17.3033 55.6307 18.1927C54.7464 19.082 54.3042 20.1708 54.3042 21.4588C54.3042 22.3995 54.5377 23.2276 55.0056 23.9429C55.4731 24.6588 56.1034 25.2108 56.8961 25.599C57.6892 25.9872 58.563 26.1818 59.5187 26.1818C61.4904 26.1818 62.9035 25.5789 63.7574 24.3723L64.1538 25.7523H67.2338V15.6934C67.2338 13.8126 66.6341 12.3965 65.4346 11.4458ZM13.1151 13.519C17.302 14.3547 20.3139 13.9602 22.2514 12.3347V4.20114H25.8592V25.535H22.2514V16.3925V16.1184C20.7622 16.8201 19.0142 17.1731 16.9913 17.1731C15.7959 17.1731 14.5039 17.0492 13.1151 16.8046V25.535H9.50866V15.9599C9.03462 15.8241 8.55231 15.6785 8.0594 15.5198C5.47279 14.6879 2.15403 15.0945 0.723524 15.7075L0 12.5309C2.07157 11.8148 5.76141 11.3847 8.9963 12.4255C9.16891 12.481 9.33908 12.534 9.50866 12.5865V4.20114H13.1151V12.9485V13.519Z" fill="#E6485C"/>
</svg>
